<svg width="32" height="32" viewBox="0 0 32 32" fill="none" xmlns="http://www.w3.org/2000/svg">
<path d="M18.0912 24.4525L26.5 16L18.0913 7.54753C18.0153 7.4478 17.9188 7.36555 17.8083 7.30636C17.6978 7.24716 17.5759 7.21239 17.4508 7.20441C17.3257 7.19643 17.2004 7.21542 17.0833 7.26009C16.9661 7.30477 16.86 7.37409 16.772 7.46335C16.684 7.55262 16.6162 7.65975 16.5732 7.7775C16.5302 7.89524 16.513 8.02085 16.5228 8.14582C16.5325 8.27079 16.569 8.3922 16.6298 8.50183C16.6906 8.61147 16.7742 8.70677 16.875 8.78128L23.1662 15.125L6.4275 15.125C6.19543 15.125 5.97288 15.2172 5.80878 15.3813C5.64469 15.5454 5.5525 15.768 5.5525 16C5.5525 16.2321 5.64469 16.4546 5.80878 16.6187C5.97288 16.7828 6.19543 16.875 6.4275 16.875L23.1662 16.875L16.875 23.2188C16.7114 23.3835 16.6199 23.6066 16.6208 23.8387C16.6216 24.0709 16.7146 24.2933 16.8794 24.4569C17.0441 24.6205 17.2671 24.712 17.4993 24.7111C17.7315 24.7103 17.9539 24.6173 18.1175 24.4525L18.0912 24.4525Z" fill="#004F44"/>
</svg>
